<?xml version="1.0" encoding="utf-8"?>
<!-- Generator: Adobe Illustrator 27.0.0, SVG Export Plug-In . SVG Version: 6.00 Build 0)  -->
<svg version="1.1" id="Layer_1" xmlns="http://www.w3.org/2000/svg" xmlns:xlink="http://www.w3.org/1999/xlink" x="0px" y="0px"
	 viewBox="0 0 40 40" style="enable-background:new 0 0 40 40;" xml:space="preserve">
<style type="text/css">
	.st0{fill:#FFFFFF;}
</style>
<g>
	<path class="st0" d="M12.3,39.66c-0.97,0-1.8-0.34-2.48-1.02c-0.68-0.68-1.02-1.51-1.02-2.48s0.34-1.8,1.02-2.48
		c0.68-0.68,1.51-1.02,2.48-1.02s1.8,0.34,2.48,1.02c0.68,0.68,1.02,1.51,1.02,2.48s-0.34,1.8-1.02,2.48
		C14.1,39.32,13.28,39.66,12.3,39.66z M31.77,39.66c-0.97,0-1.8-0.34-2.48-1.02c-0.68-0.68-1.02-1.51-1.02-2.48s0.34-1.8,1.02-2.48
		c0.68-0.68,1.51-1.02,2.48-1.02s1.8,0.34,2.48,1.02c0.68,0.68,1.02,1.51,1.02,2.48s-0.34,1.8-1.02,2.48
		C33.57,39.32,32.75,39.66,31.77,39.66z M8.31,5.21h28.6c0.73,0,1.28,0.33,1.66,1c0.38,0.67,0.38,1.33,0,2l-6.42,11.56
		c-0.41,0.7-0.95,1.24-1.64,1.62c-0.48,0.26-1.02,0.38-1.57,0.38l-14.1,0l-2.62,4.87h22.98v2.92h-23.2c-1.35,0-2.32-0.46-2.91-1.39
		c-0.59-0.92-0.59-1.96,0.02-3.12l3.08-5.84L4.89,3.26H1.14V0.34h5.37L8.31,5.21z"/>
</g>
</svg>
