<?xml version="1.0" encoding="utf-8"?>
<!-- Svg Vector Icons : http://www.onlinewebfonts.com/icon -->
<!DOCTYPE svg PUBLIC "-//W3C//DTD SVG 1.1//EN" "http://www.w3.org/Graphics/SVG/1.1/DTD/svg11.dtd">
<svg version="1.1" xmlns="http://www.w3.org/2000/svg" xmlns:xlink="http://www.w3.org/1999/xlink" x="0px" y="0px" viewBox="0 0 1000 1000" enable-background="new 0 0 1000 1000" xml:space="preserve">
<metadata> Svg Vector Icons : http://www.onlinewebfonts.com/icon </metadata>
<g><g transform="translate(0.000000,511.000000) scale(0.100000,-0.100000)"><path  fill="#00FF8a" d="M4670.2,5007.4c-38.9-4.1-159.6-18.4-265.9-30.7c-677.1-77.7-1442.2-347.8-2033.4-722.1c-576.9-366.2-1151.7-941-1517.9-1517.9c-173.9-276.2-405-763.1-507.3-1072C171.6,1134.8,98,682.7,100,109.9c0-793.7,153.4-1456.6,499.2-2158.2c484.8-988.1,1241.8-1747,2219.6-2229.8c343.7-169.8,605.5-270,902.2-347.8c732.4-190.2,1450.4-216.8,2176.7-83.9C7884-4341.6,9449-2776.6,9817.2-790.2c133,726.2,106.4,1444.3-83.9,2176.6c-77.7,296.6-178,558.5-347.8,902.2c-718,1456.6-2092.8,2446.7-3723.2,2681.9C5459.8,4999.2,4809.3,5023.7,4670.2,5007.4z M3313.9,3260.3c49.1-12.3,149.3-28.6,223-38.9c171.8-24.6,237.3-81.8,292.5-255.7c81.8-249.6,337.5-1252,345.7-1352.2c6.1-94.1,0-114.6-75.7-225c-45-67.5-161.6-192.3-261.9-276.2c-304.8-261.9-298.7-255.7-286.4-351.9c6.1-47,65.5-196.4,133-333.4c384.6-783.5,851-1307.2,1579.3-1773.6c302.8-190.2,347.8-196.4,523.7-47.1c65.5,55.2,227.1,204.6,356,329.4c139.1,133,259.8,233.2,294.6,241.4c43,10.2,90-2.1,184.1-45c157.5-73.6,1229.5-789.6,1270.4-849c42.9-63.4,38.9-167.7-20.5-370.3c-114.6-394.8-261.8-581-597.4-754.9c-286.4-147.3-488.9-198.4-822.4-204.6c-270-4.1-284.3-2.1-482.8,67.5c-233.2,79.8-918.5,419.4-1237.7,611.7c-748.7,454.2-1427.9,1186.5-1957.8,2109.1c-171.8,300.7-427.5,814.2-511.4,1029c-321.2,834.7-225,1593.6,272.1,2121.4C2841.3,3217.4,3058.1,3319.6,3313.9,3260.3z"/></g></g>
</svg>